<svg width="107" height="25" viewBox="0 0 107 25" fill="none" xmlns="http://www.w3.org/2000/svg">
<path d="M2.67969 24.3633V2.81641H0V0.300781H8.18945V2.81641H5.67383V24.3633H2.67969ZM9.40898 24.3633V0.300781H12.4031V10.4727H16.1355V0.300781H19.1434V24.3633H16.1355V12.9609H12.4031V24.3633H9.40898ZM21.9762 24.3633V0.300781H29.3453V2.81641H24.9703V10.8008H29.1129V13.3027H24.9703V21.8477H29.4137V24.3633H21.9762ZM36.7199 24.3633V0.300781H41.6965C42.6535 0.300781 43.4328 0.460286 44.0344 0.779297C44.6451 1.08919 45.1145 1.54492 45.4426 2.14648C45.7707 2.73893 45.994 3.45898 46.1125 4.30664C46.2401 5.14518 46.3039 6.09766 46.3039 7.16406V7.56055C46.3039 9.16471 46.1763 10.5137 45.9211 11.6074C45.6659 12.7012 45.2056 13.526 44.5402 14.082C43.884 14.6289 42.9452 14.9023 41.7238 14.9023H39.7141V24.3633H36.7199ZM39.7141 12.4141H41.341C41.897 12.4141 42.3117 12.2637 42.5852 11.9629C42.8677 11.653 43.0591 11.1426 43.1594 10.4316C43.2596 9.7207 43.3098 8.76367 43.3098 7.56055V7.0957C43.3098 5.5918 43.1913 4.47982 42.9543 3.75977C42.7264 3.0306 42.2069 2.66602 41.3957 2.66602H39.7141V12.4141ZM48.0293 24.3633V0.300781H51.0234V21.8613H55.5078V24.3633H48.0293ZM55.3328 24.3633L58.9422 0.300781H62.6473L66.5574 24.3633H63.741L63.0711 19.8379H58.8055L58.2039 24.3633H55.3328ZM59.1336 17.4043H62.7156L60.8699 4.8125H60.8289L59.1336 17.4043ZM68.0777 24.3633V0.300781H70.3609L75.8297 16.2695L75.5563 9.39258V0.300781H78.2223V24.3633H76.0348L70.6754 8.17578L70.8395 14.3008V24.3633H68.0777ZM81.0551 24.3633V0.300781H88.4242V2.81641H84.0492V10.8008H88.1918V13.3027H84.0492V21.8477H88.4926V24.3633H81.0551ZM91.5031 24.3633V2.81641H88.8234V0.300781H97.0129V2.81641H94.4973V24.3633H91.5031ZM102.211 24.6367C101.236 24.6367 100.434 24.4681 99.8047 24.1309C99.1849 23.7845 98.7018 23.2923 98.3555 22.6543C98.0182 22.0163 97.7812 21.2598 97.6445 20.3848C97.5169 19.5007 97.4531 18.5208 97.4531 17.4453V15.1484H100.352V17.582C100.352 19.1862 100.47 20.3346 100.707 21.0273C100.944 21.7201 101.45 22.0664 102.225 22.0664C102.753 22.0664 103.141 21.9434 103.387 21.6973C103.642 21.4512 103.806 21.0547 103.879 20.5078C103.961 19.9518 104.002 19.2272 104.002 18.334C104.002 17.2949 103.811 16.3926 103.428 15.627C103.054 14.8522 102.503 14.1003 101.773 13.3711L100.16 11.7441C99.6953 11.2702 99.2487 10.7552 98.8203 10.1992C98.3919 9.64323 98.041 9.01432 97.7676 8.3125C97.4941 7.61068 97.3574 6.81315 97.3574 5.91992C97.3574 4.68945 97.4896 3.63672 97.7539 2.76172C98.0182 1.8776 98.4922 1.19857 99.1758 0.724609C99.8685 0.241536 100.839 0 102.088 0C103.063 0 103.847 0.164062 104.439 0.492188C105.041 0.820312 105.492 1.29427 105.793 1.91406C106.103 2.52474 106.308 3.25391 106.408 4.10156C106.518 4.94922 106.572 5.89258 106.572 6.93164V8.36719H103.729V6.74023C103.729 5.81055 103.688 5.04036 103.605 4.42969C103.533 3.8099 103.378 3.34505 103.141 3.03516C102.913 2.72526 102.562 2.57031 102.088 2.57031C101.641 2.57031 101.281 2.67513 101.008 2.88477C100.734 3.0944 100.534 3.42253 100.406 3.86914C100.288 4.30664 100.229 4.87174 100.229 5.56445C100.229 6.17513 100.301 6.68555 100.447 7.0957C100.602 7.49674 100.83 7.875 101.131 8.23047C101.432 8.57682 101.805 8.98242 102.252 9.44727L103.961 11.2793C104.845 12.1999 105.561 13.2207 106.107 14.3418C106.654 15.4538 106.928 16.7344 106.928 18.1836C106.928 19.5417 106.791 20.7038 106.518 21.6699C106.253 22.627 105.779 23.3607 105.096 23.8711C104.421 24.3815 103.46 24.6367 102.211 24.6367Z" fill="white"/>
</svg>
